<svg width="100%" height="209.04000854492188px" xmlns="http://www.w3.org/2000/svg" viewBox="-73.28873291015623 -29.520004272460938 646.5774658203125 209.04000854492188" style="background: rgba(250, 250, 250, 0);" preserveAspectRatio="xMidYMid"><defs><filter id="editing-hover" x="-100%" y="-100%" width="300%" height="300%"><feFlood flood-color="#000000" result="flood"></feFlood><feComposite operator="in" in2="SourceAlpha" in="flood" result="shadow"></feComposite><feOffset dx="-1.3" dy="-2.7" in="SourceGraphic" result="offset-1"></feOffset><feOffset dx="1.3" dy="2.7" in="shadow" result="offset-2"></feOffset><feMerge><feMergeNode in="offset-2"></feMergeNode><feMergeNode in="offset-1"></feMergeNode></feMerge></filter></defs><g filter="url(#editing-hover)"><g transform="translate(21.1706200838089, 125.27000045776367)"><path d="M55.91 25L55.91 25Q52.59 25 49.22 23.46L49.22 23.46L49.22 23.46Q45.85 21.92 41.94 19.09L41.94 19.09L41.94 19.09Q38.38 16.60 34.86 13.62L34.86 13.62L34.86 13.62Q26.61 6.79 19.78 3.96L19.78 3.96L19.78 3.96Q15.82 2.29 11.28 2.29L11.28 2.29L10.16 2.29L10.16 2.29Q9.86 2.29 8.98 2.39L8.98 2.39L23.88-66.89L23.88-66.89Q17.14-64.11 13.53-58.62L13.53-58.62L13.53-58.62Q9.91-53.13 9.91-45.12L9.91-45.12L9.91-45.12Q9.91-42.04 10.60-40.09L10.60-40.09L10.60-40.09Q10.79-39.45 11.08-38.96L11.08-38.96L11.08-38.96Q11.28-38.62 11.28-38.28L11.28-38.28L11.28-38.28Q5.86-38.28 3.37-40.48L3.37-40.48L3.37-40.48Q0.59-42.82 0.59-48.00L0.59-48.00L0.59-48.00Q0.59-51.27 2.00-54.47L2.00-54.47L2.00-54.47Q3.42-57.67 6.01-60.64L6.01-60.64L6.01-60.64Q8.50-63.53 11.89-65.99L11.89-65.99L11.89-65.99Q15.28-68.46 19.19-70.26L19.19-70.26L19.19-70.26Q27.49-74.02 35.69-74.02L35.69-74.02L35.69-74.02Q37.50-74.02 39.70-73.78L39.70-73.78L24.32-2.00L24.32-2.00Q26.71-1.46 29.17-0.39L29.17-0.39L29.17-0.39Q31.64 0.68 34.81 2.39L34.81 2.39L40.28 5.32L40.28 5.32Q46.63 8.79 51.76 10.11L51.76 10.11L51.76 10.11Q54.69 10.89 57.91 10.89L57.91 10.89L57.91 10.89Q62.45 10.89 66.31 9.28L66.31 9.28L66.31 9.28Q65.43 16.60 62.74 20.75L62.74 20.75L62.74 20.75Q61.43 22.80 59.69 23.90L59.69 23.90L59.69 23.90Q57.96 25 55.91 25L55.91 25ZM52.49 0.39L52.49 0.39Q45.07 0.39 41.02-3.22L41.02-3.22L41.02-3.22Q36.47-7.23 36.47-15.38L36.47-15.38L36.47-15.38Q36.47-18.46 37.11-22.19L37.11-22.19L37.11-22.19Q37.74-25.93 39.06-29.74L39.06-29.74L39.06-29.74Q42.09-38.82 47.71-44.24L47.71-44.24L47.71-44.24Q54.49-50.88 63.87-50.88L63.87-50.88L63.87-50.88Q76.71-50.88 76.71-34.91L76.71-34.91L76.71-34.81L76.71-34.81Q77.00-34.72 77.20-34.72L77.20-34.72L77.78-34.72L77.78-34.72Q81.10-34.72 85.64-36.57L85.64-36.57L85.64-36.57Q89.65-38.23 93.21-40.72L93.21-40.72L94.09-37.99L94.09-37.99Q91.16-34.91 86.55-32.76L86.55-32.76L86.55-32.76Q81.93-30.62 76.37-29.69L76.37-29.69L76.37-29.69Q75.78-22.90 73.73-17.31L73.73-17.31L73.73-17.31Q71.68-11.72 68.46-7.71L68.46-7.71L68.46-7.71Q65.28-3.81 61.18-1.71L61.18-1.71L61.18-1.71Q57.08 0.39 52.49 0.39L52.49 0.39ZM56.49-8.59L56.49-8.59Q58.25-8.59 60.08-10.18L60.08-10.18L60.08-10.18Q61.91-11.77 63.53-14.60L63.53-14.60L63.53-14.60Q65.14-17.43 66.31-21.24L66.31-21.24L66.31-21.24Q67.48-25.05 68.07-29.39L68.07-29.39L68.07-29.39Q66.60-29.79 65.99-30.86L65.99-30.86L65.99-30.86Q65.38-31.93 65.38-33.59L65.38-33.59L65.38-33.59Q65.38-35.64 66.21-37.01L66.21-37.01L66.21-37.01Q67.04-38.38 68.51-39.01L68.51-39.01L68.51-39.01Q68.31-42.19 67.48-43.55L67.48-43.55L67.48-43.55Q67.04-44.24 66.38-44.53L66.38-44.53L66.38-44.53Q65.72-44.82 64.70-44.82L64.70-44.82L64.70-44.82Q61.33-44.82 58.11-39.75L58.11-39.75L58.11-39.75Q55.13-35.16 53.22-28.42L53.22-28.42L53.22-28.42Q51.37-21.83 51.37-16.70L51.37-16.70L51.37-16.70Q51.37-14.21 51.64-12.65L51.64-12.65L51.64-12.65Q51.90-11.08 52.54-10.21L52.54-10.21L52.54-10.21Q53.13-9.33 54.05-8.96L54.05-8.96L54.05-8.96Q54.98-8.59 56.49-8.59L56.49-8.59ZM96.09 0.59L96.09 0.59Q88.72 0.59 84.72-3.13L84.72-3.13L84.72-3.13Q80.47-7.08 80.47-15.28L80.47-15.28L80.47-15.28Q80.47-18.36 81.08-22.14L81.08-22.14L81.08-22.14Q81.69-25.93 82.96-29.69L82.96-29.69L82.96-29.69Q85.94-38.82 91.41-44.24L91.41-44.24L91.41-44.24Q98.14-50.88 107.37-50.88L107.37-50.88L107.37-50.88Q113.38-50.88 116.26-48.00L116.26-48.00L116.26-48.00Q118.51-45.70 118.51-41.70L118.51-41.70L118.51-41.70Q118.51-38.18 116.94-36.23L116.94-36.23L116.94-36.23Q115.48-34.42 113.18-34.42L113.18-34.42L113.18-34.42Q111.52-34.42 109.67-35.60L109.67-35.60L109.67-35.60Q110.89-38.77 110.89-41.50L110.89-41.50L110.89-41.50Q110.89-43.41 110.18-44.51L110.18-44.51L110.18-44.51Q109.47-45.61 108.11-45.61L108.11-45.61L108.11-45.61Q105.18-45.61 102.00-40.43L102.00-40.43L102.00-40.43Q99.12-35.84 97.22-28.76L97.22-28.76L97.22-28.76Q95.26-21.83 95.26-16.21L95.26-16.21L95.26-16.21Q95.26-11.33 97.12-9.47L97.12-9.47L97.12-9.47Q98.73-7.81 102.49-7.81L102.49-7.81L102.49-7.81Q107.91-7.81 112.40-10.74L112.40-10.74L112.40-10.74Q114.31-11.96 116.06-13.65L116.06-13.65L116.06-13.65Q117.82-15.33 120.17-17.92L120.17-17.92L123.58-17.92L123.58-17.92Q118.85-9.91 112.70-5.18L112.70-5.18L112.70-5.18Q105.13 0.59 96.09 0.59L96.09 0.59ZM132.18 0.59L132.18 0.59Q126.46 0.59 122.95-2.98L122.95-2.98L122.95-2.98Q118.85-7.18 118.85-15.48L118.85-15.48L118.85-15.48Q118.85-18.99 119.56-22.90L119.56-22.90L119.56-22.90Q120.26-26.81 121.63-30.62L121.63-30.62L121.63-30.62Q124.76-39.21 130.18-44.48L130.18-44.48L130.18-44.48Q136.43-50.49 144.58-50.49L144.58-50.49L144.58-50.49Q148.63-50.49 150.66-49.10L150.66-49.10L150.66-49.10Q152.69-47.71 152.69-45.41L152.69-45.41L152.69-44.68L153.76-50L168.16-50L160.99-16.02L160.99-16.02Q160.55-14.55 160.55-12.79L160.55-12.79L160.55-12.79Q160.55-8.50 164.65-8.50L164.65-8.50L164.65-8.50Q167.38-8.50 169.63-11.28L169.63-11.28L169.63-11.28Q171.53-13.62 172.75-17.92L172.75-17.92L176.95-17.92L176.95-17.92Q174.27-10.30 170.46-5.86L170.46-5.86L170.46-5.86Q167.24-2.20 163.18-0.59L163.18-0.59L163.18-0.59Q160.21 0.59 156.88 0.59L156.88 0.59L156.88 0.59Q152.64 0.59 150.12-1.73L150.12-1.73L150.12-1.73Q147.61-4.05 147.07-8.59L147.07-8.59L147.07-8.59Q144.24-4.59 141.11-2.34L141.11-2.34L141.11-2.34Q137.11 0.59 132.18 0.59L132.18 0.59ZM138.67-9.08L138.67-9.08Q139.79-9.08 141.04-9.67L141.04-9.67L141.04-9.67Q142.29-10.25 143.46-11.33L143.46-11.33L143.46-11.33Q146.09-13.87 146.97-17.92L146.97-17.92L151.76-40.48L151.76-40.48Q151.76-40.97 151.54-41.63L151.54-41.63L151.54-41.63Q151.32-42.29 150.93-42.87L150.93-42.87L150.93-42.87Q149.76-44.29 147.66-44.29L147.66-44.29L147.66-44.29Q145.65-44.29 143.77-42.97L143.77-42.97L143.77-42.97Q141.89-41.65 140.23-39.31L140.23-39.31L140.23-39.31Q137.30-35.06 135.40-28.22L135.40-28.22L135.40-28.22Q134.52-25.20 134.08-22.24L134.08-22.24L134.08-22.24Q133.64-19.29 133.64-16.89L133.64-16.89L133.64-16.89Q133.64-11.91 135.50-10.16L135.50-10.16L135.50-10.16Q136.13-9.47 136.91-9.28L136.91-9.28L136.91-9.28Q137.70-9.08 138.67-9.08L138.67-9.08ZM182.67 0.59L182.67 0.59Q177.88 0.59 175.10-2.25L175.10-2.25L175.10-2.25Q171.97-5.37 171.97-11.38L171.97-11.38L171.97-11.38Q171.97-14.21 172.75-17.92L172.75-17.92L183.45-68.02L198.24-70.02L186.77-16.02L186.77-16.02Q186.38-14.75 186.38-12.79L186.38-12.79L186.38-12.79Q186.38-10.74 187.33-9.91L187.33-9.91L187.33-9.91Q188.28-9.08 190.43-9.08L190.43-9.08L190.43-9.08Q191.89-9.08 193.29-9.74L193.29-9.74L193.29-9.74Q194.68-10.40 195.85-11.57L195.85-11.57L195.85-11.57Q198.24-13.96 199.46-17.92L199.46-17.92L203.66-17.92L203.66-17.92Q200.98-10.35 196.92-5.86L196.92-5.86L196.92-5.86Q193.51-2.20 189.21-0.59L189.21-0.59L189.21-0.59Q186.08 0.59 182.67 0.59L182.67 0.59ZM245.61 1.81L245.61 1.81Q240.82 1.81 236.96 0.56L236.96 0.56L236.96 0.56Q233.11-0.68 230.32-3.03L230.32-3.03L230.32-3.03Q227.49-5.37 226.00-8.59L226.00-8.59L226.00-8.59Q224.51-11.82 224.51-15.72L224.51-15.72L224.51-15.72Q224.51-18.99 225.56-21.90L225.56-21.90L225.56-21.90Q226.61-24.80 228.52-26.95L228.52-26.95L228.52-26.95Q230.42-29.10 232.96-30.30L232.96-30.30L232.96-30.30Q235.50-31.49 238.33-31.49L238.33-31.49L238.33-31.49Q241.85-31.49 244.24-29.74L244.24-29.74L244.24-29.74Q246.63-27.98 247.22-24.90L247.22-24.90L247.22-24.90Q241.99-24.90 238.92-22.12L238.92-22.12L238.92-22.12Q237.45-20.80 236.65-18.90L236.65-18.90L236.65-18.90Q235.84-16.99 235.84-14.70L235.84-14.70L235.84-14.70Q235.84-10.30 238.40-7.74L238.40-7.74L238.40-7.74Q240.97-5.18 245.31-5.18L245.31-5.18L245.31-5.18Q247.90-5.18 250.15-6.13L250.15-6.13L250.15-6.13Q252.39-7.08 254.05-8.74L254.05-8.74L254.05-8.74Q255.71-10.40 256.62-12.72L256.62-12.72L256.62-12.72Q257.52-15.04 257.52-17.68L257.52-17.68L257.52-17.68Q257.52-22.56 254.20-27.83L254.20-27.83L254.20-27.83Q252.88-29.88 251.29-31.86L251.29-31.86L251.29-31.86Q249.71-33.84 246.88-37.11L246.88-37.11L246.88-37.11Q244.34-40.04 242.63-42.19L242.63-42.19L242.63-42.19Q240.92-44.34 239.55-46.58L239.55-46.58L239.55-46.58Q236.23-52.00 236.23-57.23L236.23-57.23L236.23-57.23Q236.23-61.13 237.89-64.48L237.89-64.48L237.89-64.48Q239.55-67.82 242.63-70.31L242.63-70.31L242.63-70.31Q245.70-72.80 249.80-74.17L249.80-74.17L249.80-74.17Q253.91-75.54 258.64-75.54L258.64-75.54L258.64-75.54Q266.70-75.54 271.58-71.73L271.58-71.73L271.58-71.73Q273.93-69.87 275.17-67.29L275.17-67.29L275.17-67.29Q276.42-64.70 276.42-61.52L276.42-61.52L276.42-61.52Q276.42-57.37 274.32-54.74L274.32-54.74L274.32-54.74Q273.34-53.47 271.90-52.78L271.90-52.78L271.90-52.78Q270.46-52.10 268.85-52.10L268.85-52.10L268.85-52.10Q265.09-52.10 262.74-55.22L262.74-55.22L262.74-55.22Q264.65-56.59 265.75-58.86L265.75-58.86L265.75-58.86Q266.85-61.13 266.85-63.72L266.85-63.72L266.85-63.72Q266.85-66.94 264.94-68.82L264.94-68.82L264.94-68.82Q263.04-70.70 259.72-70.70L259.72-70.70L259.72-70.70Q257.71-70.70 256.03-69.97L256.03-69.97L256.03-69.97Q254.35-69.24 253.17-67.87L253.17-67.87L253.17-67.87Q251.95-66.50 251.29-64.65L251.29-64.65L251.29-64.65Q250.63-62.79 250.63-60.60L250.63-60.60L250.63-60.60Q250.63-57.47 252.10-54.59L252.10-54.59L252.10-54.59Q253.56-51.71 256.30-48.58L256.30-48.58L256.30-48.58Q258.74-45.70 261.57-42.87L261.57-42.87L261.57-42.87Q268.16-36.04 270.90-29.54L270.90-29.54L270.90-29.54Q272.51-25.68 272.51-21.04L272.51-21.04L272.51-21.04Q272.51-16.16 270.51-11.99L270.51-11.99L270.51-11.99Q268.51-7.81 264.79-4.74L264.79-4.74L264.79-4.74Q261.08-1.61 256.15 0.10L256.15 0.10L256.15 0.10Q251.22 1.81 245.61 1.81L245.61 1.81ZM314.21 0.59L314.21 0.59Q308.01 0.59 305.03-2.93L305.03-2.93L305.03-2.93Q302.44-5.96 302.44-10.69L302.44-10.69L302.44-10.69Q302.44-12.94 303.00-15.92L303.00-15.92L303.00-15.92Q303.56-18.90 304.69-23.58L304.69-23.58L304.69-23.58Q305.81-28.37 306.37-31.23L306.37-31.23L306.37-31.23Q306.93-34.08 306.93-36.18L306.93-36.18L306.93-36.18Q306.93-41.31 303.32-41.31L303.32-41.31L303.32-41.31Q300.78-41.31 298.63-38.62L298.63-38.62L298.63-38.62Q296.83-36.33 295.51-32.08L295.51-32.08L288.72 0L274.32 0L288.82-68.02L303.61-70.02L298.24-44.82L298.24-44.82Q301.17-48.10 304.54-49.41L304.54-49.41L304.54-49.41Q307.03-50.39 309.91-50.39L309.91-50.39L309.91-50.39Q314.99-50.39 317.92-47.75L317.92-47.75L317.92-47.75Q321.04-44.87 321.04-39.11L321.04-39.11L321.04-39.11Q321.04-35.64 319.78-30.08L319.78-30.08L319.78-30.08Q319.43-28.47 318.65-25.24L318.65-25.24L318.65-25.24Q317.24-19.82 316.60-16.60L316.60-16.60L316.60-16.60Q316.21-14.55 316.21-13.28L316.21-13.28L316.21-13.28Q316.21-11.28 317.11-10.18L317.11-10.18L317.11-10.18Q318.02-9.08 320.21-9.08L320.21-9.08L320.21-9.08Q323.19-9.08 325.24-11.52L325.24-11.52L325.24-11.52Q326.81-13.38 328.61-17.92L328.61-17.92L332.81-17.92L332.81-17.92Q329.10-6.93 323.44-2.54L323.44-2.54L323.44-2.54Q319.43 0.59 314.21 0.59L314.21 0.59ZM340.63 0.59L340.63 0.59Q334.91 0.59 331.40-2.98L331.40-2.98L331.40-2.98Q327.29-7.18 327.29-15.48L327.29-15.48L327.29-15.48Q327.29-18.99 328.00-22.90L328.00-22.90L328.00-22.90Q328.71-26.81 330.08-30.62L330.08-30.62L330.08-30.62Q333.20-39.21 338.62-44.48L338.62-44.48L338.62-44.48Q344.87-50.49 353.03-50.49L353.03-50.49L353.03-50.49Q357.08-50.49 359.11-49.10L359.11-49.10L359.11-49.10Q361.13-47.71 361.13-45.41L361.13-45.41L361.13-44.68L362.21-50L376.61-50L369.43-16.02L369.43-16.02Q368.99-14.55 368.99-12.79L368.99-12.79L368.99-12.79Q368.99-8.50 373.10-8.50L373.10-8.50L373.10-8.50Q375.83-8.50 378.08-11.28L378.08-11.28L378.08-11.28Q379.98-13.62 381.20-17.92L381.20-17.92L385.40-17.92L385.40-17.92Q382.71-10.30 378.91-5.86L378.91-5.86L378.91-5.86Q375.68-2.20 371.63-0.59L371.63-0.59L371.63-0.59Q368.65 0.59 365.33 0.59L365.33 0.59L365.33 0.59Q361.08 0.59 358.57-1.73L358.57-1.73L358.57-1.73Q356.05-4.05 355.52-8.59L355.52-8.59L355.52-8.59Q352.69-4.59 349.56-2.34L349.56-2.34L349.56-2.34Q345.56 0.59 340.63 0.59L340.63 0.59ZM347.12-9.08L347.12-9.08Q348.24-9.08 349.49-9.67L349.49-9.67L349.49-9.67Q350.73-10.25 351.90-11.33L351.90-11.33L351.90-11.33Q354.54-13.87 355.42-17.92L355.42-17.92L360.21-40.48L360.21-40.48Q360.21-40.97 359.99-41.63L359.99-41.63L359.99-41.63Q359.77-42.29 359.38-42.87L359.38-42.87L359.38-42.87Q358.20-44.29 356.10-44.29L356.10-44.29L356.10-44.29Q354.10-44.29 352.22-42.97L352.22-42.97L352.22-42.97Q350.34-41.65 348.68-39.31L348.68-39.31L348.68-39.31Q345.75-35.06 343.85-28.22L343.85-28.22L343.85-28.22Q342.97-25.20 342.53-22.24L342.53-22.24L342.53-22.24Q342.09-19.29 342.09-16.89L342.09-16.89L342.09-16.89Q342.09-11.91 343.95-10.16L343.95-10.16L343.95-10.16Q344.58-9.47 345.36-9.28L345.36-9.28L345.36-9.28Q346.14-9.08 347.12-9.08L347.12-9.08ZM377.39 0L387.99-50L402.39-50L401.12-43.80L401.12-43.80Q404.54-46.83 406.69-48.10L406.69-48.10L406.69-48.10Q410.01-50 413.18-50L413.18-50L413.18-50Q416.41-50 418.36-47.71L418.36-47.71L418.36-47.71Q419.24-46.68 419.68-45.34L419.68-45.34L419.68-45.34Q420.12-43.99 420.12-42.48L420.12-42.48L420.12-42.48Q420.12-41.11 419.68-39.84L419.68-39.84L419.68-39.84Q419.24-38.57 418.36-37.55L418.36-37.55L418.36-37.55Q417.38-36.47 415.99-35.84L415.99-35.84L415.99-35.84Q414.60-35.21 412.89-35.21L412.89-35.21L412.89-35.21Q411.57-35.21 410.79-35.64L410.79-35.64L410.79-35.64Q410.01-36.08 409.57-36.91L409.57-36.91L409.57-36.91Q409.18-37.74 409.03-38.53L409.03-38.53L409.03-38.53Q408.59-40.63 408.15-41.31L408.15-41.31L408.15-41.31Q407.81-41.80 407.08-41.80L407.08-41.80L407.08-41.80Q404.98-41.80 403.52-40.92L403.52-40.92L403.52-40.92Q402.05-40.04 399.80-37.99L399.80-37.99L391.80 0L377.39 0ZM433.11 0.59L433.11 0.59Q425.73 0.59 421.73-3.13L421.73-3.13L421.73-3.13Q417.48-7.08 417.48-15.28L417.48-15.28L417.48-15.28Q417.48-18.36 418.09-22.12L418.09-22.12L418.09-22.12Q418.70-25.88 419.92-29.64L419.92-29.64L419.92-29.64Q421.29-33.84 423.41-37.60L423.41-37.60L423.41-37.60Q425.54-41.36 428.37-44.24L428.37-44.24L428.37-44.24Q434.91-50.88 444.48-50.88L444.48-50.88L444.48-50.88Q450.59-50.88 453.37-47.95L453.37-47.95L453.37-47.95Q455.52-45.65 455.52-41.31L455.52-41.31L455.52-41.31Q455.52-37.06 453.66-33.33L453.66-33.33L453.66-33.33Q451.81-29.59 448.54-26.71L448.54-26.71L448.54-26.71Q445.26-23.88 441.11-22.19L441.11-22.19L441.11-22.19Q436.96-20.51 432.52-20.21L432.52-20.21L432.52-20.21Q432.28-17.68 432.28-16.21L432.28-16.21L432.28-16.21Q432.28-11.33 434.13-9.47L434.13-9.47L434.13-9.47Q435.74-7.81 439.50-7.81L439.50-7.81L439.50-7.81Q444.92-7.81 449.41-10.74L449.41-10.74L449.41-10.74Q451.32-11.96 453.08-13.65L453.08-13.65L453.08-13.65Q454.83-15.33 457.18-17.92L457.18-17.92L460.60-17.92L460.60-17.92Q455.86-9.91 449.71-5.18L449.71-5.18L449.71-5.18Q442.14 0.59 433.11 0.59L433.11 0.59ZM433.30-25L433.30-25Q436.08-25.20 438.72-26.61L438.72-26.61L438.72-26.61Q441.36-28.03 443.41-30.32L443.41-30.32L443.41-30.32Q445.46-32.67 446.63-35.57L446.63-35.57L446.63-35.57Q447.80-38.48 447.80-41.50L447.80-41.50L447.80-41.50Q447.80-43.51 447.24-44.56L447.24-44.56L447.24-44.56Q446.68-45.61 445.31-45.61L445.31-45.61L445.31-45.61Q443.51-45.61 441.67-43.85L441.67-43.85L441.67-43.85Q439.84-42.09 438.13-39.01L438.13-39.01L438.13-39.01Q436.57-36.13 435.30-32.47L435.30-32.47L435.30-32.47Q434.03-28.81 433.30-25L433.30-25Z" fill="#dcde29"></path></g></g><style>text {
  font-size: 64px;
  font-family: Arial Black;
  dominant-baseline: central;
  text-anchor: middle;
}</style></svg>